<svg xmlns="http://www.w3.org/2000/svg" xmlns:xlink="http://www.w3.org/1999/xlink" width="307.96" height="236.812" viewBox="0 0 307.96 236.812"><defs><radialGradient id="a" cx="0.5" cy="0.5" r="0.5" gradientTransform="matrix(0.006, 1, -1, 0.006, 0.997, -0.003)" gradientUnits="objectBoundingBox"><stop offset="0.785" stop-color="#fff"/><stop offset="1" stop-color="#d4e5fc"/></radialGradient></defs><g transform="translate(-812.963 -314.746)"><path d="M474.7,132.24l-167.7,167.7a124.036,124.036,0,0,1,28.288,69.107H572.431A360.122,360.122,0,0,0,474.7,132.24Z" transform="translate(505.969 182.506)" fill="#12b09b"/><path d="M383.111,137.486l-7.082,7.082a334.2,334.2,0,0,1,90.162,218.386h10.02A344.165,344.165,0,0,0,383.111,137.486Z" transform="translate(586.213 188.603)" fill="#fff"/><g transform="translate(982.893 354.208)"><circle cx="69.015" cy="69.015" r="69.015" fill="#fff"/><circle cx="58.012" cy="58.012" r="58.012" transform="translate(11.003 11.003)" fill="#12b09b"/><circle cx="50.941" cy="50.941" r="50.941" transform="translate(17.754 119.634) rotate(-89.639)" fill="url(#a)"/></g><text transform="translate(851 475)" fill="#fafafa" font-size="15" font-family="SegoeUI-Bold, Segoe UI" font-weight="700"><tspan x="0" y="0">1st Month Payroll</tspan></text><text transform="translate(851 500)" fill="#fafafa" font-size="15" font-family="SegoeUI-Bold, Segoe UI" font-weight="700"><tspan x="0" y="0">performance Review</tspan></text><g transform="translate(1022 393)"><g transform="translate(0 9.833)"><path d="M55.887,94.12a7.867,7.867,0,1,0-9.94-.353H40.724l-6.6-6.6a.982.982,0,0,0-1.39,0L28.8,91.1a.982.982,0,0,0,0,1.39l8.85,8.85a.979.979,0,0,0,.7.288h7.867v6.883H29.37l4.881-7.321-1.636-1.091-5.608,8.411H24.583V103.6a.982.982,0,0,0-.983-.983H15.733V98.683A4.917,4.917,0,0,0,12.62,94.12a7.867,7.867,0,1,0-9.507,0A4.917,4.917,0,0,0,0,98.683V112.45a4.922,4.922,0,0,0,4.917,4.917v11.8H6.883v-11.8h6.883v10.817a.982.982,0,0,0,.983.983h6.883a.982.982,0,0,0,.983-.983v-14.75a4.89,4.89,0,0,0-.985-2.95h6.885V127.2H24.583v1.967h9.833V127.2H30.483V110.483h6.909a4.866,4.866,0,0,0-1.009,2.95v14.75a.982.982,0,0,0,.983.983H44.25a.982.982,0,0,0,.983-.983V117.367h6.883v11.8h1.967v-11.8A4.922,4.922,0,0,0,59,112.45V98.683A4.917,4.917,0,0,0,55.887,94.12ZM1.967,87.867a5.9,5.9,0,1,1,5.9,5.9A5.906,5.906,0,0,1,1.967,87.867Zm20.65,20.65H9.833V100.65H7.867v8.85a.982.982,0,0,0,.983.983H17.7a2.954,2.954,0,0,1,2.95,2.95V127.2H15.733V116.383a.982.982,0,0,0-.983-.983H4.917a2.954,2.954,0,0,1-2.95-2.95V98.683a2.954,2.954,0,0,1,2.95-2.95h5.9a2.954,2.954,0,0,1,2.95,2.95V103.6a.982.982,0,0,0,.983.983h7.867Zm22.617-20.65a5.9,5.9,0,1,1,5.9,5.9A5.906,5.906,0,0,1,45.233,87.867Zm11.8,24.583a2.954,2.954,0,0,1-2.95,2.95H44.25a.982.982,0,0,0-.983.983V127.2H38.35V113.433a2.954,2.954,0,0,1,2.95-2.95h5.9a.982.982,0,0,0,.983-.983v-8.85a.982.982,0,0,0-.983-.983H38.757L30.89,91.8l2.543-2.543,6.188,6.188a.979.979,0,0,0,.7.288H54.083a2.954,2.954,0,0,1,2.95,2.95Z" transform="translate(0 -80)" fill="#12b09b"/></g><g transform="translate(16.717)"><path d="M158.617,0H138.95A2.954,2.954,0,0,0,136,2.95v7.867a2.954,2.954,0,0,0,2.95,2.95h.983v5.9a.982.982,0,0,0,.607.909.971.971,0,0,0,.377.075.984.984,0,0,0,.7-.288l6.6-6.6h10.41a2.954,2.954,0,0,0,2.95-2.95V2.95A2.954,2.954,0,0,0,158.617,0Zm.983,10.817a.984.984,0,0,1-.983.983H147.8a.979.979,0,0,0-.7.288l-5.2,5.2v-4.51a.982.982,0,0,0-.983-.983H138.95a.984.984,0,0,1-.983-.983V2.95a.984.984,0,0,1,.983-.983h19.667a.984.984,0,0,1,.983.983Z" transform="translate(-136)" fill="#12b09b"/></g><g transform="translate(21.557 4.539)"><g transform="translate(0 0)"><rect width="5" height="1" transform="translate(0.443 0.462)" fill="#12b09b"/></g></g><g transform="translate(21.557 7.942)"><g transform="translate(0 0)"><rect width="17" height="2" transform="translate(0.443 0.058)" fill="#12b09b"/></g></g><g transform="translate(28.366 4.539)"><g transform="translate(0 0)"><rect width="11" height="1" transform="translate(-0.365 0.462)" fill="#12b09b"/></g></g></g></g></svg>