<svg xmlns="http://www.w3.org/2000/svg" xmlns:xlink="http://www.w3.org/1999/xlink" width="236.833" height="325.609" viewBox="0 0 236.833 325.609"><defs><radialGradient id="a" cx="0.5" cy="0.5" r="0.5" gradientTransform="translate(0.233 -0.155) rotate(22.845)" gradientUnits="objectBoundingBox"><stop offset="0.785" stop-color="#fff"/><stop offset="1" stop-color="#d4e5fc"/></radialGradient></defs><g transform="translate(-955.087 -658.571)"><path d="M609.553,557.185V320.014a124.056,124.056,0,0,1-69.148-28.77L372.72,458.929A360.146,360.146,0,0,0,609.553,557.185Z" transform="translate(582.367 367.327)" fill="#5053a3"/><g transform="translate(976.449 806.822)"><circle cx="69.015" cy="69.015" r="69.015" transform="translate(0 129.448) rotate(-69.69)" fill="#fff"/><circle cx="58.012" cy="58.012" r="58.012" transform="translate(12.669 57.805) rotate(-22.894)" fill="#5053a3"/><circle cx="50.941" cy="50.941" r="50.941" transform="translate(21.956 61.511) rotate(-22.845)" fill="url(#a)"/></g><text transform="translate(1059 795)" fill="#fafafa" font-size="15" font-family="SegoeUI-Bold, Segoe UI" font-weight="700"><tspan x="0" y="0">(We Go Live)</tspan></text><g transform="translate(1009.99 866)"><g transform="translate(64.138 9.158)"><g transform="translate(0)"><path d="M365.786,90.17h-3.053a1.527,1.527,0,1,0,0,3.053h3.053a1.527,1.527,0,1,0,0-3.053Z" transform="translate(-361.207 -90.17)" fill="#5053a3"/></g></g><g transform="translate(48.873 0)"><g transform="translate(0 0)"><path d="M215.326,3.9,213.8.843a1.527,1.527,0,1,0-2.731,1.366l1.527,3.053A1.527,1.527,0,1,0,215.326,3.9Z" transform="translate(-210.907 0)" fill="#5053a3"/></g></g><g transform="translate(59.558 0)"><path d="M319.849.16A1.53,1.53,0,0,0,317.8.843L316.274,3.9A1.527,1.527,0,1,0,319,5.262l1.526-3.053A1.527,1.527,0,0,0,319.849.16Z" transform="translate(-316.112 0)" fill="#5053a3"/></g><g transform="translate(42.768 9.158)"><g transform="translate(0)"><path d="M155.372,90.17H152.32a1.527,1.527,0,1,0,0,3.053h3.053a1.527,1.527,0,0,0,0-3.053Z" transform="translate(-150.793 -90.17)" fill="#5053a3"/></g></g><g transform="translate(30.556 24.525)"><g transform="translate(0)"><path d="M38.188,241.468H32.083a1.527,1.527,0,0,0-1.527,1.527v24.423a1.527,1.527,0,0,0,1.527,1.527h6.106a1.527,1.527,0,0,0,1.527-1.527V242.994A1.526,1.526,0,0,0,38.188,241.468Z" transform="translate(-30.556 -241.468)" fill="#5053a3"/></g></g><g transform="translate(42.768 9.26)"><path d="M184.346,110.483a4.8,4.8,0,0,0-4.864-4.046h-11.9c1.011-1.811,1.554-6.933,1.53-9.026a6.356,6.356,0,0,0-6.372-6.239h-1.26a1.526,1.526,0,0,0-1.527,1.527c0,3.53-1.374,9.9-3.967,12.494a16.909,16.909,0,0,1-5.192,3.354v22.9a35.659,35.659,0,0,0,12.591,2.462h9.985a4.641,4.641,0,0,0,4.578-6.267A4.581,4.581,0,0,0,181,121.54a4.582,4.582,0,0,0,2.206-7.471A4.57,4.57,0,0,0,184.346,110.483Z" transform="translate(-150.794 -91.172)" fill="#5053a3"/></g></g><path d="M529.2,329.119a140.261,140.261,0,0,1-80.256-32.738l-7.095,7.095A150.237,150.237,0,0,0,529.2,339.161Z" transform="translate(662.721 373.298)" fill="#fff"/></g></svg>