<svg xmlns="http://www.w3.org/2000/svg" xmlns:xlink="http://www.w3.org/1999/xlink" width="236.833" height="321.288" viewBox="0 0 236.833 321.288"><defs><radialGradient id="a" cx="0.5" cy="0.5" r="0.5" gradientTransform="matrix(0.989, 0.149, -0.149, 0.989, 0.08, -0.069)" gradientUnits="objectBoundingBox"><stop offset="0.785" stop-color="#fff"/><stop offset="1" stop-color="#d4e5fc"/></radialGradient></defs><g transform="translate(-1214.093 -658.571)"><path d="M729.332,458.929,561.649,291.244a124.048,124.048,0,0,1-69.15,28.77V557.185A360.142,360.142,0,0,0,729.332,458.929Z" transform="translate(721.594 367.327)" fill="#6939a3"/><g transform="translate(1248.152 811.143)"><circle cx="69.015" cy="69.015" r="69.015" transform="translate(0 133.448) rotate(-75.196)" fill="#fff"/><circle cx="58.012" cy="58.012" r="58.012" transform="translate(18.327 35.667) rotate(-8.595)" fill="#6939a3"/><circle cx="50.941" cy="50.941" r="50.941" transform="translate(26.38 41.596) rotate(-8.589)" fill="url(#a)"/></g><text transform="translate(1222 742)" fill="#fafafa" font-size="12" font-family="SegoeUI-Bold, Segoe UI" font-weight="700"><tspan x="0" y="0">We then sign a</tspan><tspan x="0" y="16">contract &amp; Trans Skills </tspan><tspan x="0" y="32">moves forward to taking </tspan><tspan x="0" y="48">care of your payroll process.</tspan><tspan x="0" y="64">while you focus more on your core</tspan><tspan x="0" y="80" xml:space="preserve"> business.</tspan></text><g transform="translate(1299.949 807.879)"><g transform="translate(0 68.454)"><path d="M65.488,68.568a1.1,1.1,0,0,0-1.158.113L46.42,82.376a2.206,2.206,0,0,0-.549,2.873l-2.826.77-4.124-1.756a1.094,1.094,0,0,0-.224-.069c-3.956-.756-6.007-.027-7.067.785H20.371a2.211,2.211,0,0,0-.691-2.6L1.771,68.681A1.1,1.1,0,0,0,0,69.556V96a1.1,1.1,0,0,0,.555.956l6.819,3.9a2.184,2.184,0,0,0,1.089.289,2.211,2.211,0,0,0,1.508-.6l1.278,1.021a3.279,3.279,0,0,0,2.313,5.29c.094.009.186.012.279.012a3.288,3.288,0,0,0,.506-.044,3.825,3.825,0,0,0,.889,2.135h0a3.831,3.831,0,0,0,2.624,1.35c.109.01.217.014.326.014.017,0,.033,0,.049,0a3.247,3.247,0,0,0,.759,1.95,3.3,3.3,0,0,0,2.519,1.164,3.247,3.247,0,0,0,1.129-.2,3.253,3.253,0,0,0,2.877,2.366c.094.009.186.012.279.012a3.2,3.2,0,0,0,2.074-.747L29.6,113.52l4.068,2.718a3.838,3.838,0,0,0,2.125.641,3.919,3.919,0,0,0,.772-.076,3.837,3.837,0,0,0,3.069-3.387,3.8,3.8,0,0,0,4.9-3.343,3.834,3.834,0,0,0,4.985-4.276,3.8,3.8,0,0,0,2.717-1.652A3.864,3.864,0,0,0,52.74,101l2.172-2.172.887,1.33a2.206,2.206,0,0,0,2.927.692l6.819-3.9A1.1,1.1,0,0,0,66.1,96V69.556A1.1,1.1,0,0,0,65.488,68.568ZM2.2,95.357V71.785L14.5,81.19,4.415,96.62Zm6.264,3.578-2.136-1.22,9.927-15.183,2.083,1.593Zm6.061,5.468a1.037,1.037,0,0,1-.785.251,1.08,1.08,0,0,1-.646-1.866l2.755-2.13a1.068,1.068,0,0,1,.695-.255q.045,0,.09,0a1.08,1.08,0,0,1,.646,1.867Zm3.513,3.705a1.653,1.653,0,0,1-.969-2.877l3.47-2.683a1.653,1.653,0,0,1,2.716,1.4,1.628,1.628,0,0,1-.515,1.068l-.944.737-2.553,1.973A1.634,1.634,0,0,1,18.041,108.108Zm5.627,1.707,0,0-1.47,1.147a1.076,1.076,0,0,1-1.519-.126h0a1.065,1.065,0,0,1-.252-.785,1.05,1.05,0,0,1,.343-.706l2.575-2.01.76-.587c.008-.007.014-.016.022-.023l.778-.607a1.066,1.066,0,0,1,.694-.256.9.9,0,0,1,.091,0,1.08,1.08,0,0,1,.642,1.869l-2.577,2.011Zm5.572,1.2-2.755,2.13a1.024,1.024,0,0,1-.785.251,1.08,1.08,0,0,1-.646-1.865l.05-.039,2.706-2.092a1.079,1.079,0,0,1,1.431,1.615ZM50.4,102.926a1.664,1.664,0,0,1-2.271.473l-.009-.005-7.235-5a1.1,1.1,0,1,0-1.252,1.812l7,4.84,0,0a1.644,1.644,0,0,1-.59,2.983,1.624,1.624,0,0,1-1.225-.235l-7.24-5a1.1,1.1,0,0,0-1.252,1.814l5.288,3.648,0,0a1.752,1.752,0,0,1,.475,2.367,1.647,1.647,0,0,1-2.265.479l-1.949-1.383h0l-1.986-1.409a1.1,1.1,0,0,0-1.276,1.8l2.043,1.449a3.151,3.151,0,0,1,.28.256,1.656,1.656,0,0,1-2.053,2.584l-3.629-2.425a3.262,3.262,0,0,0-2.391-5.016,3.251,3.251,0,0,0-3-3.289,3.147,3.147,0,0,0-.424,0,3.827,3.827,0,0,0-5.773-3.195,3.277,3.277,0,0,0-5.205-1.536l-1.5,1.163-1.716-1.371,7.7-11.555h9.67a3.171,3.171,0,0,0-1.028,2.948A3.138,3.138,0,0,0,30.21,92.7a10.811,10.811,0,0,0,5.989-.863l2.809,1.787a1.1,1.1,0,0,0,.2.089l10.74,6.917a1.8,1.8,0,0,1,.523.556c.005.013.012.025.018.038A1.667,1.667,0,0,1,50.4,102.926ZM51.524,99.1a3.886,3.886,0,0,0-.371-.317l-10.9-7.018a1.046,1.046,0,0,0-.155-.06l-3.241-2.061a1.1,1.1,0,0,0-1.139-.027,8.724,8.724,0,0,1-5.152.907.928.928,0,0,1-.808-.777.993.993,0,0,1,.516-1.065,12.7,12.7,0,0,0,2.312-1.548.742.742,0,0,0,.184-.232.869.869,0,0,1,.116-.119c.323-.277,1.654-1.115,5.278-.444L42.534,88.2a1.078,1.078,0,0,0,.721.049l3.894-1.062,6.518,9.774Zm6.11-.164L47.758,84.126l2.085-1.594L59.77,97.715ZM63.9,95.357,61.686,96.62,51.6,81.19l12.3-9.405V95.357Z" transform="translate(0 -68.454)" fill="#6939a3"/></g></g><path d="M572.139,296.095A140.286,140.286,0,0,1,492.5,329.35v10.042a150.268,150.268,0,0,0,86.735-36.2Z" transform="translate(721.594 372.966)" fill="#fff"/></g></svg>