<svg xmlns="http://www.w3.org/2000/svg" xmlns:xlink="http://www.w3.org/1999/xlink" width="307.432" height="236.269" viewBox="0 0 307.432 236.269"><defs><radialGradient id="a" cx="0.5" cy="0.5" r="0.5" gradientTransform="matrix(0.006, 1, -1, 0.006, 0.997, -0.003)" gradientUnits="objectBoundingBox"><stop offset="0.785" stop-color="#fff"/><stop offset="1" stop-color="#d4e5fc"/></radialGradient></defs><g transform="translate(-1298.356 -315.301)"><path d="M699.152,132.5,531.467,300.182a124.063,124.063,0,0,1,28.727,68.584H797.386A360.142,360.142,0,0,0,699.152,132.5Z" transform="translate(766.889 182.804)" fill="#a3395e"/><path d="M543.994,201.331l-7.095,7.095a140.265,140.265,0,0,1,32.743,80.33h10.042A150.245,150.245,0,0,0,543.994,201.331Z" transform="translate(773.203 262.815)" fill="#fff"/><g transform="translate(1467.758 354.208)"><circle cx="69.015" cy="69.015" r="69.015" fill="#fff"/><circle cx="58.012" cy="58.012" r="58.012" transform="translate(11.003 11.003)" fill="#a3395e"/><circle cx="50.941" cy="50.941" r="50.941" transform="translate(17.754 119.634) rotate(-89.639)" fill="url(#a)"/></g><text transform="translate(1360 481)" fill="#fafafa" font-size="13" font-family="SegoeUI-Bold, Segoe UI" font-weight="700"><tspan x="0" y="0">Keeping you up to </tspan><tspan x="0" y="17">date and well complied</tspan><tspan x="0" y="34">with the process by giving</tspan><tspan x="0" y="51">you</tspan></text><g transform="translate(1508.5 395.5)"><path d="M48.653,8.347A28.5,28.5,0,0,0,8.347,48.653,28.5,28.5,0,0,0,48.653,8.347ZM28.5,52.547A24.047,24.047,0,1,1,52.547,28.5,24.074,24.074,0,0,1,28.5,52.547Z" fill="#a3395e"/><g transform="translate(11.719 31.729)"><path d="M134.623,285.092a15.932,15.932,0,0,1-2.785,4.72,12.048,12.048,0,0,1-9.527,4.434,12.819,12.819,0,0,1-9.834-4.487,17.143,17.143,0,0,1-3.043-4.753l-4.172,1.557a21.329,21.329,0,0,0,3.787,6.042,17.342,17.342,0,0,0,13.262,6.093,16.543,16.543,0,0,0,13.036-6.142,20.156,20.156,0,0,0,3.51-6.088Z" transform="translate(-105.262 -285.006)" fill="#a3395e"/></g><g transform="translate(15.141 16.49)"><circle cx="3.563" cy="3.563" r="3.563" fill="#a3395e"/></g><g transform="translate(34.734 16.49)"><circle cx="3.563" cy="3.563" r="3.563" fill="#a3395e"/></g></g></g></svg>