<svg xmlns="http://www.w3.org/2000/svg" xmlns:xlink="http://www.w3.org/1999/xlink" width="236.833" height="312.188" viewBox="0 0 236.833 312.188"><defs><radialGradient id="a" cx="0.5" cy="0.5" r="0.5" gradientTransform="matrix(0.015, 1, -1, 0.015, 0.993, -0.007)" gradientUnits="objectBoundingBox"><stop offset="0.785" stop-color="#fff"/><stop offset="1" stop-color="#d4e5fc"/></radialGradient></defs><g transform="translate(-469.169 -154.542)"><path d="M148.005,177.8,315.688,345.48a124.063,124.063,0,0,1,69.15-28.77V79.541A360.131,360.131,0,0,0,148.005,177.8Z" transform="translate(321.164 121.25)" fill="#ebc400"/><path d="M160.353,187.735A334.2,334.2,0,0,1,378.717,96.9V86.88a344.191,344.191,0,0,0-225.446,93.771Z" transform="translate(327.285 129.781)" fill="#fff"/><g transform="translate(505.715 154.542)"><circle cx="69.015" cy="69.015" r="69.015" fill="#fff"/><circle cx="58.012" cy="58.012" r="58.012" transform="matrix(0.989, -0.15, 0.15, 0.989, 2.972, 20.339)" fill="#ebc400"/><circle cx="50.941" cy="50.941" r="50.941" transform="translate(17.335 119.207) rotate(-89.163)" fill="url(#a)"/></g><text transform="translate(545 335)" fill="#fafafa" font-size="15" font-family="SegoeUI-Bold, Segoe UI" font-weight="700"><tspan x="0" y="0">Client&apos;s Basic payroll</tspan><tspan x="0" y="20">data</tspan></text><g transform="translate(526.82 190.903)"><g transform="translate(18.181 0)"><path d="M39.33,35.127a.94.94,0,0,0,.94-.94V10.313a.326.326,0,0,1,.325-.326h45.6a.326.326,0,0,1,.326.326V21.648a.94.94,0,0,0,1.881,0V10.313a2.207,2.207,0,0,0-1.267-1.994V6.26a2.208,2.208,0,0,0-1.267-1.994V2.207A2.209,2.209,0,0,0,83.659,0H43.13a2.209,2.209,0,0,0-2.207,2.207V4.266A2.208,2.208,0,0,0,39.656,6.26v2.06a2.207,2.207,0,0,0-1.266,1.993V34.186a.941.941,0,0,0,.94.94ZM41.537,6.26a.327.327,0,0,1,.326-.326H84.926a.327.327,0,0,1,.326.326V8.106H41.537ZM42.8,2.207a.327.327,0,0,1,.326-.326H83.659a.327.327,0,0,1,.326.326V4.053H42.8Z" transform="translate(-35.856 0)" fill="#ebc400"/><path d="M183.852,227.8a12.086,12.086,0,1,0,3.54,8.546A12.007,12.007,0,0,0,183.852,227.8Zm-1.33,15.762a10.205,10.205,0,1,1,2.989-7.216A10.139,10.139,0,0,1,182.522,243.561Z" transform="translate(-145.035 -196.141)" fill="#ebc400"/><path d="M77.541,147.407l-4.284-4.284V131.607a.94.94,0,0,0-.94-.94H70.724V110.854a.94.94,0,0,0-1.881,0v19.813H63.569a16.138,16.138,0,0,0-24.256-18.949v-13.8a.94.94,0,0,0-.94-.94H25.708a.94.94,0,0,0-.94.94v15.705a.94.94,0,0,0,.94.94H36.16a16.172,16.172,0,0,0-2.826,16.1H22.6v-7.275a.94.94,0,1,0-1.881,0v7.275H19.121a.94.94,0,0,0-.94.948l.14,16.465a.94.94,0,0,0,.94.932h5.587a.94.94,0,1,0,0-1.881H20.194l-.124-14.584h14.1a16.165,16.165,0,0,0,21.836,6.735l2.7,2.7a.94.94,0,0,0,1.33,0l.41-.41,1.894,1.894-.41.41a.94.94,0,0,0,0,1.33l1.922,1.922H29.237a.94.94,0,1,0,0,1.881H66.131a.94.94,0,0,0,.663-1.605l-2.862-2.862,4.044-4.044,8.236,8.236a.94.94,0,0,0,1.33-1.33ZM26.648,98.857H37.433v13.824H26.648ZM38.369,135.1a14.258,14.258,0,1,1,20.164,0A14.274,14.274,0,0,1,38.369,135.1Zm19.293,3.172a16.243,16.243,0,0,0,4.044-4.044l1.715,1.715-4.044,4.044Zm4.12,1.971,1.894-1.894,1.894,1.894-1.894,1.894Zm5.528-1.74-.41.41-1.894-1.894.41-.41a.94.94,0,0,0,0-1.33l-2.7-2.7.017-.031h8.646v8.695l-2.736-2.736a.94.94,0,0,0-1.33,0Z" transform="translate(-18.181 -84.817)" fill="#ebc400"/><path d="M230.066,96.976H207.014a.94.94,0,1,0,0,1.881h23.051a.94.94,0,0,0,0-1.881Z" transform="translate(-182.516 -84.817)" fill="#ebc400"/><path d="M231.006,130.241a.94.94,0,0,0-.94-.94H207.014a.94.94,0,0,0,0,1.881h23.051A.94.94,0,0,0,231.006,130.241Z" transform="translate(-182.516 -113.089)" fill="#ebc400"/><path d="M207.015,161.626a.94.94,0,0,0,0,1.881h15.452a.94.94,0,0,0,0-1.881Z" transform="translate(-182.517 -141.361)" fill="#ebc400"/></g></g></g></svg>