<svg xmlns="http://www.w3.org/2000/svg" xmlns:xlink="http://www.w3.org/1999/xlink" width="308.327" height="236.812" viewBox="0 0 308.327 236.812"><defs><radialGradient id="a" cx="0.5" cy="0.5" r="0.5" gradientUnits="objectBoundingBox"><stop offset="0.785" stop-color="#fff"/><stop offset="1" stop-color="#d4e5fc"/></radialGradient></defs><g transform="translate(-798.807 -573.743)"><path d="M418.015,488.827l167.7-167.7a124.029,124.029,0,0,1-28.288-69.107H320.282A360.113,360.113,0,0,0,418.015,488.827Z" transform="translate(521.414 321.729)" fill="#127eb0"/><g transform="translate(798.807 629.001)"><circle cx="69.015" cy="69.015" r="69.015" fill="#fff"/><circle cx="58.012" cy="58.012" r="58.012" transform="translate(2.221 21.376) rotate(-9.503)" fill="#127eb0"/><circle cx="50.941" cy="50.941" r="50.941" transform="translate(18.073 18.073)" fill="url(#a)"/></g><text transform="translate(940 639)" fill="#fafafa" font-size="15" font-family="SegoeUI-Bold, Segoe UI" font-weight="700"><tspan x="0" y="0">Month 2</tspan></text><text transform="translate(940 664)" fill="#fafafa" font-size="15" font-family="SegoeUI-Bold, Segoe UI" font-weight="700"><tspan x="0" y="0">Payroll processing</tspan></text><g transform="translate(834 658)"><g transform="translate(26.4)"><path d="M198.6,0a6.6,6.6,0,1,0,6.6,6.6A6.6,6.6,0,0,0,198.6,0Zm0,11A4.4,4.4,0,1,1,203,6.6,4.4,4.4,0,0,1,198.6,11Z" transform="translate(-192)" fill="#127eb0"/></g><g transform="translate(23.1 14.3)"><path d="M182.3,104h-.26l-.232.115a8.769,8.769,0,0,1-7.817,0L173.76,104h-.26a5.507,5.507,0,0,0-5.5,5.5v6.6a3.3,3.3,0,0,0,3.3,3.3h13.2a3.3,3.3,0,0,0,3.3-3.3v-6.6A5.507,5.507,0,0,0,182.3,104Zm3.3,12.1a1.1,1.1,0,0,1-1.1,1.1H171.3a1.1,1.1,0,0,1-1.1-1.1v-6.6a3.3,3.3,0,0,1,3.066-3.291,11.008,11.008,0,0,0,9.269,0A3.3,3.3,0,0,1,185.6,109.5Z" transform="translate(-168 -104)" fill="#127eb0"/></g><g transform="translate(49.5 36.3)"><path d="M366.6,264a6.6,6.6,0,1,0,6.6,6.6A6.6,6.6,0,0,0,366.6,264Zm0,11a4.4,4.4,0,1,1,4.4-4.4A4.4,4.4,0,0,1,366.6,275Z" transform="translate(-360 -264)" fill="#127eb0"/></g><g transform="translate(46.2 50.6)"><path d="M350.3,368h-.26l-.232.11a8.77,8.77,0,0,1-7.817,0l-.232-.11h-.26a5.507,5.507,0,0,0-5.5,5.5v6.6a3.3,3.3,0,0,0,3.3,3.3h13.2a3.3,3.3,0,0,0,3.3-3.3v-6.6A5.507,5.507,0,0,0,350.3,368Zm3.3,12.1a1.1,1.1,0,0,1-1.1,1.1H339.3a1.1,1.1,0,0,1-1.1-1.1v-6.6a3.3,3.3,0,0,1,3.066-3.291,11.009,11.009,0,0,0,9.269,0A3.3,3.3,0,0,1,353.6,373.5Z" transform="translate(-336 -368)" fill="#127eb0"/></g><g transform="translate(3.3 36.3)"><path d="M30.6,264a6.6,6.6,0,1,0,6.6,6.6A6.6,6.6,0,0,0,30.6,264Zm0,11a4.4,4.4,0,1,1,4.4-4.4A4.4,4.4,0,0,1,30.6,275Z" transform="translate(-24 -264)" fill="#127eb0"/></g><g transform="translate(0 50.6)"><path d="M14.3,368h-.26l-.232.11a8.77,8.77,0,0,1-7.817,0L5.76,368H5.5A5.507,5.507,0,0,0,0,373.5v6.6a3.3,3.3,0,0,0,3.3,3.3H16.5a3.3,3.3,0,0,0,3.3-3.3v-6.6A5.507,5.507,0,0,0,14.3,368Zm3.3,12.1a1.1,1.1,0,0,1-1.1,1.1H3.3a1.1,1.1,0,0,1-1.1-1.1v-6.6a3.3,3.3,0,0,1,3.066-3.291,11.009,11.009,0,0,0,9.269,0A3.3,3.3,0,0,1,17.6,373.5Z" transform="translate(0 -368)" fill="#127eb0"/></g><g transform="translate(22 53.899)"><path d="M181.912,393.959l0,0a1.1,1.1,0,0,0-1.443-.581h0a24.4,24.4,0,0,1-15.689,1.08l1.03-.3a1.1,1.1,0,0,0-.618-2.112l-4.4,1.29c-.016,0-.029.019-.044.024a1.09,1.09,0,0,0-.284.157.957.957,0,0,0-.11.069,1.065,1.065,0,0,0-.27.374,1.1,1.1,0,0,0-.084.454,3.4,3.4,0,0,0,.11.44c.007.015,0,.033.012.048l2.2,4.21a1.1,1.1,0,1,0,1.951-1.019l-.9-1.712a26.478,26.478,0,0,0,17.951-.977A1.1,1.1,0,0,0,181.912,393.959Z" transform="translate(-159.998 -391.995)" fill="#127eb0"/></g><g transform="translate(41.8 8.61)"><path d="M324.576,82.933a1.1,1.1,0,0,0-1.555,0l-1.556,1.557a26.36,26.36,0,0,0-15.935-21.78,1.1,1.1,0,1,0-.862,2.024,24.164,24.164,0,0,1,14.55,19.44l-1.241-1.241a1.1,1.1,0,0,0-1.555,1.555l3.3,3.3a1.1,1.1,0,0,0,1.556,0l0,0,3.3-3.3A1.1,1.1,0,0,0,324.576,82.933Z" transform="translate(-303.998 -62.622)" fill="#127eb0"/></g><g transform="translate(6.6 6.618)"><path d="M65.568,51.041a1.023,1.023,0,0,0-.029-.19c0-.01-.012-.017-.016-.028s0-.019,0-.027a1.055,1.055,0,0,0-.1-.152,1.111,1.111,0,0,0-.125-.181,1.032,1.032,0,0,0-.215-.146.967.967,0,0,0-.123-.089l-4.4-2.01a1.1,1.1,0,0,0-.913,2l2.278,1.042A26.36,26.36,0,0,0,48,74.516a1.1,1.1,0,1,0,2.2,0A24.163,24.163,0,0,1,62.105,53.678l-.8,1.662a1.1,1.1,0,0,0,.514,1.466,1.083,1.083,0,0,0,.476.11,1.1,1.1,0,0,0,.99-.624l2.2-4.59a.05.05,0,0,1,.009-.034,1.058,1.058,0,0,0,.059-.233,1.138,1.138,0,0,0,.042-.181A1.1,1.1,0,0,0,65.568,51.041Z" transform="translate(-48 -48.134)" fill="#127eb0"/></g></g><path d="M454.375,339.468l7.095-7.095a140.3,140.3,0,0,1-33.934-80.358H417.5A150.275,150.275,0,0,0,454.375,339.468Z" transform="translate(634.412 321.729)" fill="#fff"/></g></svg>