<svg xmlns="http://www.w3.org/2000/svg" xmlns:xlink="http://www.w3.org/1999/xlink" width="236.528" height="316.577" viewBox="0 0 236.528 316.577"><defs><radialGradient id="a" cx="0.5" cy="0.5" r="0.5" gradientTransform="translate(-2.075 4.437) rotate(180)" gradientUnits="objectBoundingBox"><stop offset="0.785" stop-color="#fff"/><stop offset="1" stop-color="#d4e5fc"/></radialGradient></defs><g transform="translate(-1214.246 -153.243)"><path d="M492.57,81.255V318.4a124.053,124.053,0,0,1,68.809,28.182L729.1,178.858A360.127,360.127,0,0,0,492.57,81.255Z" transform="translate(721.676 123.242)" fill="#661433"/><path d="M492.57,88.808V98.824a334.213,334.213,0,0,1,218.068,89.715l7.088-7.086A344.194,344.194,0,0,0,492.57,88.808Z" transform="translate(721.676 132.022)" fill="#fff"/><g transform="translate(1261.904 153.243)"><circle cx="69.015" cy="69.015" r="69.015" transform="translate(11.968 11.968)" fill="#fff"/><circle cx="58.012" cy="58.012" r="58.012" transform="translate(0 94.124) rotate(-54.218)" fill="#661433"/><circle cx="50.941" cy="50.941" r="50.941" transform="translate(9.097 80.799) rotate(-45)" fill="url(#a)"/></g><text transform="translate(1229 324)" fill="#fafafa" font-size="13" font-family="SegoeUI-Bold, Segoe UI" font-weight="700"><tspan x="0" y="0">End-Result:</tspan><tspan x="0" y="17">more streamlined payroll</tspan><tspan x="0" y="34">process</tspan></text><g transform="translate(1311.953 203)"><path d="M22.379,15.546a4.715,4.715,0,1,1,4.716,4.716A4.716,4.716,0,0,1,22.379,15.546ZM29.311,36.81a27.794,27.794,0,0,1-6.934,1.927V60.41a2,2,0,0,0,3.994,0V42.036a4.733,4.733,0,0,0,1.712,0v11.53a2,2,0,1,0,3.994,0V38.452a1.875,1.875,0,0,0-.061-.464,4.952,4.952,0,0,0,.061-.72V35.628c-.868.34-1.761.72-2.689,1.149ZM21.789,25.54a1.951,1.951,0,0,0,.588.4V31.8a20.644,20.644,0,0,0,4.2-1.264,48.429,48.429,0,0,1,5.5-2.168V25.86a4.979,4.979,0,0,0-.039-.581L42.263,15.054a2,2,0,1,0-2.821-2.824L29.872,21.8a4.832,4.832,0,0,0-5.794.38L14.128,12.23A2,2,0,0,0,11.3,15.054Zm22.765.431a36.559,36.559,0,0,0-15.881,4.77,21.161,21.161,0,0,1-12.022,2.093c-2.2-.3-4.241-1.873-6.4-3.531-.879-.673-1.786-1.369-2.718-1.986L5.014,31.124c.8.528,1.6,1.144,2.455,1.8,2.42,1.859,5.165,3.963,8.52,4.427a21.541,21.541,0,0,0,4.577.193,26.628,26.628,0,0,0,10.178-2.736l.057-.029a31.9,31.9,0,0,1,14.026-4.249c3.473-.209,4.626.49,7.711,2.36l.886.534,2.346-3.913-.866-.524C51.619,26.993,49.449,25.677,44.553,25.971Zm8.374-15.259-1.3-1.23-1.23,1.3,1.3,1.23Zm-1.265,5.728v-.9h-.895v.9ZM43.95,20.264l1.108-1.109-1.106-1.106-1.109,1.11ZM2.046,8.232l1.61.576L4.232,7.2l-1.61-.576Zm5.533,4.051L6.471,10.427,4.616,11.536l1.109,1.856Zm3.332,7.657-.61-1.675-1.676.611.611,1.675Zm7.316-11.7.693.5.5-.693-.692-.5ZM29.652,5.634,28.864,5.3l-.334.787.788.334Zm3.933,2.518.139.553c2.439-.61,3.85-1.441,4.2-2.5a1.956,1.956,0,0,0-.565-1.893,2.182,2.182,0,0,1-.441-.682l-.026-.065c-.426-.991-.907-2.115-.149-3.251L36.269,0c-.929,1.394-.335,2.781.111,3.813a2.619,2.619,0,0,0,.542.868,1.408,1.408,0,0,1,.455,1.377C37.109,6.863,35.762,7.608,33.585,8.152ZM18.365,2.865c1.176,1.046,2.391,2.128,1.913,3.163l.518.238c.654-1.418-.783-2.7-2.051-3.826A8.906,8.906,0,0,1,17.212.861l-.48.306A9.28,9.28,0,0,0,18.365,2.865Zm38.83,13.557-.009.109.568.051.009-.109c.172-1.892.439-3.338,2.13-3.338v-.571C57.542,12.565,57.334,14.887,57.195,16.422Z" fill="#661433"/></g></g></svg>