<svg xmlns="http://www.w3.org/2000/svg" xmlns:xlink="http://www.w3.org/1999/xlink" width="306.641" height="236.267" viewBox="0 0 306.641 236.267"><defs><radialGradient id="a" cx="0.5" cy="0.5" r="0.5" gradientTransform="translate(0)" gradientUnits="objectBoundingBox"><stop offset="0.785" stop-color="#fff"/><stop offset="1" stop-color="#d4e5fc"/></radialGradient></defs><g transform="translate(-315.1 -573.733)"><path d="M193.821,488.277,361.5,320.592a124.057,124.057,0,0,1-28.727-68.582H95.587A360.12,360.12,0,0,0,193.821,488.277Z" transform="translate(260.236 321.723)" fill="#ff5100"/><path d="M196.726,476.728l7.082-7.082A334.209,334.209,0,0,1,113.047,252.01H103.024A344.193,344.193,0,0,0,196.726,476.728Z" transform="translate(268.881 321.723)" fill="#fff"/><g transform="translate(315.1 629.001)"><circle cx="69.015" cy="69.015" r="69.015" fill="#fff"/><circle cx="58.012" cy="58.012" r="58.012" transform="translate(2.459 21.044) rotate(-9.218)" fill="#ff5100"/><circle cx="50.941" cy="50.941" r="50.941" transform="translate(18.073 18.073)" fill="url(#a)"/></g><text transform="translate(413 602)" fill="#fafafa" font-size="15" font-family="SegoeUI-Bold, Segoe UI" font-weight="700"><tspan x="0" y="0">- Cost Effective</tspan></text><text transform="translate(437 629)" fill="#fafafa" font-size="15" font-family="SegoeUI-Bold, Segoe UI" font-weight="700"><tspan x="0" y="0">- Compliant</tspan></text><text transform="translate(457 656)" fill="#fafafa" font-size="15" font-family="SegoeUI-Bold, Segoe UI" font-weight="700"><tspan x="0" y="0">- Technology driven </tspan><tspan x="0" y="20" xml:space="preserve">   ready</tspan></text><text transform="translate(362 715)" fill="#ff5100" font-size="37" font-family="SegoeUI-Bold, Segoe UI" font-weight="700"><tspan x="0" y="0">TS</tspan></text></g></svg>