<svg xmlns="http://www.w3.org/2000/svg" xmlns:xlink="http://www.w3.org/1999/xlink" width="236.833" height="325.215" viewBox="0 0 236.833 325.215"><defs><radialGradient id="a" cx="0.5" cy="0.5" r="0.5" gradientTransform="matrix(0.013, 1, -1, 0.013, 0.993, -0.006)" gradientUnits="objectBoundingBox"><stop offset="0.785" stop-color="#fff"/><stop offset="1" stop-color="#d4e5fc"/></radialGradient></defs><g transform="translate(-728.177 -141.515)"><path d="M267.784,79.541V316.71a124.056,124.056,0,0,1,69.148,28.77L504.617,177.8A360.14,360.14,0,0,0,267.784,79.541Z" transform="translate(460.393 121.25)" fill="#9fc914"/><path d="M267.784,96.9a334.212,334.212,0,0,1,218.41,90.789l7.082-7.082a344.192,344.192,0,0,0-225.492-93.73Z" transform="translate(460.393 129.778)" fill="#fff"/><g transform="translate(764.551 141.515)"><circle cx="69.015" cy="69.015" r="69.015" transform="translate(13.027 13.027)" fill="#fff"/><circle cx="58.012" cy="58.012" r="58.012" transform="translate(0 82.042) rotate(-45)" fill="#9fc914"/><circle cx="50.941" cy="50.941" r="50.941" transform="translate(30.442 132.316) rotate(-89.254)" fill="url(#a)"/></g><text transform="translate(736 310)" fill="#fafafa" font-size="15" font-family="SegoeUI-Bold, Segoe UI" font-weight="700"><tspan x="0" y="0">Month 1</tspan></text><text transform="translate(736 335)" fill="#fafafa" font-size="15" font-family="SegoeUI-Bold, Segoe UI" font-weight="700"><tspan x="0" y="0">TS Produce an accurate</tspan><tspan x="0" y="20">and precise payroll data</tspan></text><g transform="translate(811.971 187.823)"><g transform="translate(4.574 4.631)"><path d="M56.056,32.106A23.874,23.874,0,1,0,79.931,55.98,23.874,23.874,0,0,0,56.056,32.106Zm0,2.274A21.578,21.578,0,0,1,73.7,43.554L70.854,46.4a4.487,4.487,0,0,0-2.292-.648A4.548,4.548,0,0,0,64.015,50.3a4.487,4.487,0,0,0,.645,2.3l-7.444,7.444a4.409,4.409,0,0,0-4.591,0l-5.171-5.171a4.487,4.487,0,0,0,.645-2.3,4.538,4.538,0,0,0-8.934-1.137H34.947A21.631,21.631,0,0,1,56.056,34.38ZM70.836,50.3a2.274,2.274,0,1,1-2.274-2.274A2.274,2.274,0,0,1,70.836,50.3ZM57.193,63.939a2.274,2.274,0,1,1-2.274-2.274A2.274,2.274,0,0,1,57.193,63.939ZM45.825,52.57A2.274,2.274,0,1,1,43.551,50.3,2.274,2.274,0,0,1,45.825,52.57Zm20.727,22.3A21.6,21.6,0,0,1,34.577,53.707h4.587a4.548,4.548,0,0,0,4.386,3.411,4.487,4.487,0,0,0,2.3-.645l5.171,5.171a4.487,4.487,0,0,0-.645,2.3,4.548,4.548,0,0,0,9.1,0,4.487,4.487,0,0,0-.645-2.3L66.267,54.2a4.487,4.487,0,0,0,2.3.645A4.548,4.548,0,0,0,73.11,50.3a4.487,4.487,0,0,0-.645-2.3l2.478-2.477A21.581,21.581,0,0,1,66.552,74.868Z" transform="translate(-32.182 -32.106)" fill="#9fc914"/></g><g transform="translate(0 0.08)"><g transform="translate(0 0)"><path d="M56.87,11.453a4.548,4.548,0,0,0,4.386-3.411h6.983V5.768H61.256a4.538,4.538,0,0,0-8.934,1.137,4.487,4.487,0,0,0,.645,2.3l-2,2a28.422,28.422,0,1,0-7.1,41.162L47.3,55.791,48.912,57.4l9.152,9.152a5.96,5.96,0,0,0,8.429-8.429L57.341,48.97l-1.608-1.608L52.3,43.931a28.328,28.328,0,0,0,0-30.85l2.274-2.274A4.488,4.488,0,0,0,56.87,11.453Zm0-6.821A2.274,2.274,0,1,1,54.6,6.905,2.274,2.274,0,0,1,56.87,4.631Zm8.015,55.1A3.687,3.687,0,1,1,59.73,65l-.059-.059-9.152-9.152,5.214-5.214ZM54.126,48.97l-5.214,5.214-3.147-3.147c.16-.123.31-.258.468-.384s.341-.277.51-.42c.249-.209.495-.421.736-.638.124-.114.242-.227.364-.341q.7-.655,1.354-1.354c.114-.122.227-.24.341-.364.217-.241.429-.487.638-.736q.214-.252.42-.51c.125-.157.26-.307.383-.467Zm-4.409-5.281c-.358.5-.728.99-1.118,1.462-.114.138-.235.271-.352.406q-.522.607-1.078,1.178-.242.25-.492.492-.569.556-1.178,1.078c-.135.114-.268.238-.406.352-.472.39-.962.759-1.462,1.118a26.189,26.189,0,1,1,6.086-6.086Z" transform="translate(0 -0.08)" fill="#9fc914"/></g></g></g></g></svg>