<svg xmlns="http://www.w3.org/2000/svg" xmlns:xlink="http://www.w3.org/1999/xlink" width="306.115" height="236.812" viewBox="0 0 306.115 236.812"><defs><radialGradient id="a" cx="0.5" cy="0.5" r="0.5" gradientTransform="translate(0.997 -0.003) rotate(89.642)" gradientUnits="objectBoundingBox"><stop offset="0.785" stop-color="#fff"/><stop offset="1" stop-color="#d4e5fc"/></radialGradient></defs><g transform="translate(-315.1 -314.746)"><path d="M95.567,369.052H332.714A124.067,124.067,0,0,1,361,299.945L193.3,132.24A360.131,360.131,0,0,0,95.567,369.052Z" transform="translate(260.213 182.506)" fill="#ff9000"/><path d="M103,362.927h10.02a334.186,334.186,0,0,1,90.117-218.337l-7.082-7.082A344.165,344.165,0,0,0,103,362.927Z" transform="translate(268.852 188.63)" fill="#fff"/><g transform="translate(315.1 354.208)"><circle cx="69.015" cy="69.015" r="69.015" fill="#fff"/><circle cx="58.012" cy="58.012" r="58.012" transform="translate(11.003 11.003)" fill="#ff9000"/><circle cx="50.941" cy="50.941" r="50.941" transform="translate(17.756 119.637) rotate(-89.642)" fill="url(#a)"/></g><text transform="translate(460 471)" fill="#fafafa" font-size="15" font-family="SegoeUI-Bold, Segoe UI" font-weight="700"><tspan x="0" y="0">Client&apos;s full Data </tspan><tspan x="0" y="20">protection</tspan></text><text transform="translate(345 434)" fill="#ff9000" font-size="37" font-family="SegoeUI-Bold, Segoe UI" font-weight="700"><tspan x="0" y="0">NDA</tspan></text></g></svg>