<svg xmlns="http://www.w3.org/2000/svg" xmlns:xlink="http://www.w3.org/1999/xlink" width="306.906" height="236.814" viewBox="0 0 306.906 236.814"><defs><radialGradient id="a" cx="0.5" cy="0.5" r="0.5" gradientTransform="translate(0)" gradientUnits="objectBoundingBox"><stop offset="0.785" stop-color="#fff"/><stop offset="1" stop-color="#d4e5fc"/></radialGradient></defs><g transform="translate(-1298.882 -573.743)"><path d="M797.145,252.015H560a124.061,124.061,0,0,1-28.288,69.107l167.7,167.707A360.131,360.131,0,0,0,797.145,252.015Z" transform="translate(767.172 321.729)" fill="#a3399e"/><path d="M579.94,252.015H569.9a140.275,140.275,0,0,1-33.316,79.644l7.095,7.095A150.253,150.253,0,0,0,579.94,252.015Z" transform="translate(772.834 321.729)" fill="#fff"/><g transform="translate(1467.758 629.001)"><circle cx="69.015" cy="69.015" r="69.015" fill="#fff"/><circle cx="58.012" cy="58.012" r="58.012" transform="matrix(0.984, -0.178, 0.178, 0.984, 1.589, 22.275)" fill="#a3399e"/><circle cx="50.941" cy="50.941" r="50.941" transform="translate(18.073 18.074)" fill="url(#a)"/></g><text transform="translate(1360 620)" fill="#fafafa" font-size="13" font-family="SegoeUI-Bold, Segoe UI" font-weight="700"><tspan x="0" y="0">- Month-end Review</tspan><tspan x="0" y="17">- Quarter-end Review</tspan><tspan x="0" y="34">- Year-end Review</tspan></text><g transform="translate(1505 666.801)"><g transform="translate(0 0)"><g transform="translate(0 0)"><path d="M62.146,0H1.053A1.053,1.053,0,0,0,0,1.053H0V22.12H2.107V2.107H61.093V25.28H24.226v2.107h37.92A1.053,1.053,0,0,0,63.2,26.334h0V1.053A1.053,1.053,0,0,0,62.146,0Z" transform="translate(0 0)" fill="#a3399e"/></g></g><g transform="translate(33.941 5.852)"><g transform="translate(0 0)"><rect width="21" height="2" transform="translate(0.059 0.347)" fill="#a3399e"/></g></g><g transform="translate(37.842 10.728)"><g transform="translate(0 0)"><rect width="21" height="2" transform="translate(0.158 0.471)" fill="#a3399e"/></g></g><g transform="translate(33.941 17.555)"><g transform="translate(0 0)"><rect width="20" height="3" transform="translate(0.059 -0.356)" fill="#a3399e"/></g></g><g transform="translate(0 4.213)"><path d="M33.622,36.868a3.4,3.4,0,0,0-4.444-1.833l-.088.038L20.549,39.5a5.209,5.209,0,0,0,.517-2.238,5.267,5.267,0,1,0-9.453,3.16H11.57A7.228,7.228,0,0,0,4.855,45.1L2.043,54.795a3.374,3.374,0,1,0,6.335,2.321l1.1-3.506V68.854A5.251,5.251,0,0,0,2.645,76.8,4.853,4.853,0,0,0,0,81.106v8.827a1.053,1.053,0,0,0,1.053,1.053H11.587a1.053,1.053,0,0,0,1.053-1.053h0V81.106a4.841,4.841,0,0,0-1.88-3.813h7.973a4.841,4.841,0,0,0-1.88,3.813v8.827a1.053,1.053,0,0,0,1.053,1.053H28.44a1.053,1.053,0,0,0,1.053-1.053h0V81.106a4.853,4.853,0,0,0-2.645-4.3A5.262,5.262,0,0,0,22.12,67.88V46.333l9.67-5.021A3.4,3.4,0,0,0,33.622,36.868ZM15.8,34.107a3.16,3.16,0,1,1-3.16,3.16A3.16,3.16,0,0,1,15.8,34.107ZM6.32,69.88a3.16,3.16,0,1,1-3.16,3.16A3.16,3.16,0,0,1,6.32,69.88Zm4.213,19H2.107V81.106a2.764,2.764,0,0,1,2.76-2.76H7.773a2.764,2.764,0,0,1,2.76,2.76Zm16.853-7.773v7.773H18.96V81.106a2.764,2.764,0,0,1,2.76-2.76h2.906A2.764,2.764,0,0,1,27.386,81.106ZM23.173,69.88a3.16,3.16,0,1,1-3.16,3.16A3.163,3.163,0,0,1,23.173,69.88Zm8.522-31.255a1.355,1.355,0,0,1-.8.78L20.581,44.758a1.054,1.054,0,0,0-.568.935V68.854a5.2,5.2,0,0,0-1.639,6.332H16.853V57.28H14.746V75.186H11.119a5.218,5.218,0,0,0,.464-2.107h0V46.746a1.053,1.053,0,0,0-2.058-.316L6.383,56.439a1.267,1.267,0,0,1-1.757.7,1.293,1.293,0,0,1-.588-1.673L6.85,45.775a5.089,5.089,0,0,1,4.72-3.242h7.458a1.049,1.049,0,0,0,.485-.118l10.469-5.434a1.3,1.3,0,0,1,1.658.614A1.281,1.281,0,0,1,31.695,38.625Z" transform="translate(0 -32)" fill="#a3399e"/></g><g transform="translate(33.706 39.976)"><path d="M266,312.657a5.267,5.267,0,1,0-7.448-.1l.1.1a4.853,4.853,0,0,0-2.645,4.3v8.827a1.053,1.053,0,0,0,1.053,1.053h10.534a1.053,1.053,0,0,0,1.053-1.053h0v-8.827A4.852,4.852,0,0,0,266,312.657Zm-3.675-6.921a3.16,3.16,0,1,1-3.16,3.16A3.16,3.16,0,0,1,262.32,305.736Zm4.213,19h-8.427v-7.773a2.764,2.764,0,0,1,2.76-2.76h2.906a2.764,2.764,0,0,1,2.76,2.76Z" transform="translate(-256 -303.618)" fill="#a3399e"/></g><g transform="translate(50.559 39.976)"><path d="M394,312.657a5.267,5.267,0,1,0-7.448-.1l.1.1a4.853,4.853,0,0,0-2.645,4.3v8.827a1.053,1.053,0,0,0,1.053,1.053h10.534a1.053,1.053,0,0,0,1.053-1.053h0v-8.827A4.853,4.853,0,0,0,394,312.657Zm-3.675-6.921a3.16,3.16,0,1,1-3.16,3.16A3.16,3.16,0,0,1,390.32,305.736Zm4.213,19h-8.427v-7.773a2.764,2.764,0,0,1,2.76-2.76h2.906a2.764,2.764,0,0,1,2.76,2.76Z" transform="translate(-384 -303.618)" fill="#a3399e"/></g></g></g></svg>